<svg xmlns="http://www.w3.org/2000/svg" width="233" height="46" viewBox="0 0 233 46">
  <g id="Grupo_4" data-name="Grupo 4" transform="translate(-32.019)">
    <g id="Grupo_5" data-name="Grupo 5" transform="translate(-12)">
      <text id="HealthTrack" transform="translate(86.019 36)" fill="#070707" font-size="34" font-family="OpenSans, Open Sans"><tspan x="0" y="0">HealthTrack</tspan></text>
      <g id="workout" transform="translate(6.151 -65.384)">
        <path id="Caminho_109" data-name="Caminho 109" d="M154.4,290.453l-.4,1.978.875.874a9.545,9.545,0,0,1,.718-3.213l-.17-1.014A8.72,8.72,0,0,1,154.4,290.453Z" transform="translate(-107.613 -198.019)" fill="#d1345b"/>
        <path id="Caminho_110" data-name="Caminho 110" d="M42.768,90.8c.155-2.921.659-4.167,1.067-4.7a5.1,5.1,0,0,1,1.256-4.924,5.621,5.621,0,0,1,1.953-1.252A7.027,7.027,0,0,1,50.4,77.774l-.5-.5a6.445,6.445,0,0,0-4.562-1.891q-.254,0-.51.02a6.446,6.446,0,0,0-4.716,2.642L39.1,79.436a6.455,6.455,0,0,0,.661,8.359Z" fill="#d1345b"/>
        <path id="Caminho_111" data-name="Caminho 111" d="M124.117,122.854a.587.587,0,0,1-.327.239,4.386,4.386,0,0,0-1.684,1.056,4.1,4.1,0,0,0-.842,4.106.587.587,0,0,1-.244.631c-.077.081-.819.979-.9,5.157l1.488,1.486.276-1.378a.587.587,0,0,1,.16-.3c.015-.015,1.589-1.614,1.589-3.106a.587.587,0,0,1,1.166-.1l.587,3.521a.587.587,0,0,1-.054.359,8.418,8.418,0,0,0-.657,4.064l2.131,2.129h6.564l2.131-2.129a8.417,8.417,0,0,0-.657-4.065.591.591,0,0,1-.053-.358l.587-3.521a.587.587,0,0,1,1.165.1c0,1.492,1.573,3.09,1.589,3.106a.59.59,0,0,1,.16.3l.276,1.378,1.488-1.486c-.085-4.177-.827-5.075-.9-5.157a.587.587,0,0,1-.244-.631,4.1,4.1,0,0,0-.842-4.106,4.384,4.384,0,0,0-1.686-1.056.593.593,0,0,1-.325-.238,6.343,6.343,0,0,0-3.437-2.025l-2.114,2.114a.587.587,0,0,1-.83,0l-2.114-2.115A6.344,6.344,0,0,0,124.117,122.854Zm12.187,3.9a.587.587,0,0,1,.117.822l-1.408,1.878a1.769,1.769,0,0,1-1.408.7h-2.347a.587.587,0,0,1,0-1.174H133.6a.589.589,0,0,0,.469-.235l1.408-1.878A.587.587,0,0,1,136.3,126.754Zm-5.461-2.293,1.76-1.76a.587.587,0,0,1,.415-.172h1.174a.587.587,0,1,1,0,1.174h-.931l-1.588,1.589a.587.587,0,0,1-.83-.83Zm-.759,6.87a.587.587,0,0,1,.587.587v.587h2.347a.587.587,0,1,1,0,1.174h-2.347v1.174h2.347a.587.587,0,1,1,0,1.174h-2.347V137.2h2.347a.587.587,0,1,1,0,1.174h-2.347v.587a.587.587,0,0,1-1.174,0v-.587H127.15a.587.587,0,1,1,0-1.174H129.5v-1.174H127.15a.587.587,0,1,1,0-1.174H129.5v-1.174H127.15a.587.587,0,1,1,0-1.174H129.5v-.587A.587.587,0,0,1,130.084,131.331Zm-4.108-8.8h1.174a.587.587,0,0,1,.415.172l1.76,1.76a.587.587,0,1,1-.83.83l-1.588-1.589h-.931a.587.587,0,1,1,0-1.174Zm-1.291,4.342,1.408,1.878a.589.589,0,0,0,.469.235h2.347a.587.587,0,0,1,0,1.174h-2.347a1.769,1.769,0,0,1-1.408-.7l-1.408-1.878a.587.587,0,1,1,.939-.7Z" transform="translate(-76.215 -42.112)" fill="#d1345b"/>
        <path id="Caminho_112" data-name="Caminho 112" d="M229.383,410.1l2.107-2.1h-4.214Z" transform="translate(-175.514 -308.219)" fill="#d1345b"/>
        <path id="Caminho_113" data-name="Caminho 113" d="M306.695,79.925a5.622,5.622,0,0,1,1.953,1.252A5.1,5.1,0,0,1,309.9,86.1c.408.531.912,1.777,1.067,4.7l3.006-3a6.455,6.455,0,0,0,.661-8.359l-1.009-1.389a6.455,6.455,0,0,0-9.787-.772l-.5.5A7.029,7.029,0,0,1,306.695,79.925Z" transform="translate(-246.002 -0.001)" fill="#d1345b"/>
        <path id="Caminho_114" data-name="Caminho 114" d="M336.463,289.077l-.169,1.014a9.546,9.546,0,0,1,.718,3.213l.874-.874-.4-1.978A8.723,8.723,0,0,1,336.463,289.077Z" transform="translate(-276.536 -198.019)" fill="#d1345b"/>
      </g>
    </g>
  </g>
</svg>
